PathFileType	4	(X/Y/Z)	s11c0401.trc
DataRate	CameraRate	NumFrames	NumMarkers	Units	OrigDataRate	OrigDataStartFrame	OrigNumFrames
200	200	4	48	mm	200	250	2000
Frame#	Time	racr			lacr			c7			jug			rlel			rdr			llel			ldr			s2			lic			ric			lasi			rasi			rpsi			lpsi			rgt			lgt			rth1			rth2			rth3			rth4			rlfc			rmfc			rsh1			rsh2			rsh3			rsh4			rlmal			rcal			rtoe			rmt5			lth1			lth2			lth4			lth3			llfc			lmfc			llmal			lcal			lmt5			lsh1			lsh2			lsh3			lsh4			ltoe			SBIKE			LBIKE			RBIKE			
		X1	Y1	Z1	X2	Y2	Z2	X3	Y3	Z3	X4	Y4	Z4	X5	Y5	Z5	X6	Y6	Z6	X7	Y7	Z7	X8	Y8	Z8	X9	Y9	Z9	X10	Y10	Z10	X11	Y11	Z11	X12	Y12	Z12	X13	Y13	Z13	X14	Y14	Z14	X15	Y15	Z15	X16	Y16	Z16	X17	Y17	Z17	X18	Y18	Z18	X19	Y19	Z19	X20	Y20	Z20	X21	Y21	Z21	X22	Y22	Z22	X23	Y23	Z23	X24	Y24	Z24	X25	Y25	Z25	X26	Y26	Z26	X27	Y27	Z27	X28	Y28	Z28	X29	Y29	Z29	X30	Y30	Z30	X31	Y31	Z31	X32	Y32	Z32	X33	Y33	Z33	X34	Y34	Z34	X35	Y35	Z35	X36	Y36	Z36	X37	Y37	Z37	X38	Y38	Z38	X39	Y39	Z39	X40	Y40	Z40	X41	Y41	Z41	X42	Y42	Z42	X43	Y43	Z43	X44	Y44	Z44	X45	Y45	Z45	X46	Y46	Z46	X47	Y47	Z47	X48	Y48	Z48	
250	1.2500	453.753776	1424.872615	-114.278763	477.076119	1446.562354	-433.694549	380.784772	1532.257964	-283.660169	430.745420	1365.561824	-281.957787	535.323040	1164.593146	-24.097798	760.998311	966.132928	-86.264821	507.811924	1162.609615	-569.235603	752.880253	950.775622	-495.024812	-135.193053	1203.046174	-268.948955	77.937530	1203.437845	-480.401443	91.228353	1246.818689	-83.493924	114.419538	1138.886386	-446.897853	114.993406	1192.386626	-130.115154	-94.732931	1285.626863	-228.308768	-98.494908	1265.986586	-322.881012	63.006893	1129.148727	-52.965394	-23.206438	1062.078394	-471.948769	196.414606	1082.233066	-58.120770	284.075057	1081.219076	-74.241554	358.442569	1036.432287	-85.507363	291.905409	1114.412646	-89.469749	459.720431	993.960199	-104.568070	454.782997	967.471412	-234.493018	394.199950	847.446924	-87.849394	369.596813	763.863667	-105.154217	309.669631	701.008575	-101.355003	391.335071	754.374373	-136.618994	228.743132	594.619533	-105.677643	158.400424	591.545974	-151.202001	426.287408	489.070061	-151.547109	353.506037	480.980276	-80.757728	64.938046	940.345238	-489.981440	127.302520	882.003579	-491.417541	159.483063	900.317189	-492.160003	153.960440	796.287470	-482.701981	221.594697	675.242786	-461.858105	250.526025	673.490934	-336.502756	55.490540	278.106522	-413.473656	-2.323423	242.080222	-375.297538	187.515853	165.919822	-453.247836	167.723344	560.547627	-474.102465	160.688106	476.379505	-454.985942	111.202438	404.211700	-444.526017	191.600955	469.876658	-433.668139	288.446534	177.568112	-389.659203	-217.484689	957.645079	-257.925239	-17.895018	80.808031	-460.829049	-17.914577	80.848101	-62.180001	
251	1.2550	453.605262	1423.679054	-114.233030	477.444472	1445.934168	-431.562734	380.966094	1531.224141	-282.713637	430.103642	1363.926049	-281.187356	534.657639	1164.160308	-22.701467	761.025635	966.853060	-87.270865	508.661722	1163.203663	-569.322447	753.080870	950.899140	-494.605808	-135.212904	1202.918883	-270.093510	77.451749	1204.271798	-481.155721	90.301745	1247.217132	-83.763516	113.871858	1139.530314	-448.082192	114.050130	1192.946956	-130.853244	-95.377292	1286.026752	-229.058091	-99.058238	1266.235600	-323.459808	62.240766	1130.171864	-53.353901	-23.395661	1062.697341	-472.748269	195.811895	1083.460666	-58.476625	283.399848	1082.571706	-74.690719	357.806560	1037.752544	-85.793913	291.166907	1115.549391	-90.140359	459.149421	994.985230	-104.735891	455.075124	968.602462	-234.965333	396.126638	847.213883	-88.004174	372.709280	763.332350	-105.443830	313.783975	699.530168	-101.680624	394.692655	754.189167	-136.846268	233.860518	591.760443	-105.632481	163.654108	588.337995	-151.228012	432.038346	487.176912	-151.934465	359.368906	478.715700	-81.136009	65.527378	941.509227	-490.950978	128.027389	883.380231	-492.500935	160.169754	901.861655	-493.252730	154.945258	797.762665	-484.115513	222.610734	676.761203	-463.675734	252.460331	674.893712	-338.297484	51.802619	282.268069	-413.604537	-6.468050	247.211397	-375.574428	182.207404	168.234632	-453.186813	167.541992	562.934155	-475.477244	159.339732	478.942423	-456.157768	108.859728	407.472788	-445.438563	190.221983	472.017227	-434.929593	283.293154	178.534305	-389.636154	-217.512187	957.593449	-258.144068	-17.909611	80.818868	-460.864154	-17.941652	80.860526	-62.199856	
252	1.2600	453.467002	1422.654559	-113.882722	477.822090	1445.421744	-429.724797	381.281068	1530.143231	-281.690449	429.701432	1362.301099	-280.427652	533.765244	1163.321773	-20.948394	760.906457	967.607673	-88.210113	509.555615	1163.972790	-569.468638	753.096440	950.973989	-493.922380	-135.901358	1203.272844	-270.681809	77.064868	1205.032654	-481.700272	89.418729	1247.423555	-83.966346	113.345824	1140.008162	-449.080945	113.144724	1193.269311	-131.506407	-95.953452	1286.405668	-229.902601	-99.317425	1266.692717	-324.080048	61.408421	1131.278227	-53.749534	-23.440927	1063.365405	-473.297971	195.163615	1084.479074	-58.788568	282.636803	1083.643333	-75.139374	357.112520	1038.732562	-86.020716	290.347788	1116.573083	-90.645726	458.481229	995.723883	-104.751225	455.368447	969.594816	-235.512276	397.757454	846.752435	-88.247780	375.527666	762.757239	-105.708545	317.396331	698.135571	-102.105822	397.701466	753.832812	-137.024494	238.808555	588.611418	-105.659984	168.726148	584.855763	-151.259936	437.662997	485.045855	-152.167223	365.022617	476.308982	-81.452239	66.160679	942.819163	-492.001715	128.840810	884.837402	-493.648434	160.906420	903.364362	-494.314500	155.954346	799.241978	-485.486976	223.641235	678.424402	-465.440915	253.709119	676.593127	-340.005334	48.492087	286.643051	-413.965348	-10.428265	252.544563	-375.661644	177.108821	170.749788	-453.122181	167.580723	565.333147	-476.831642	158.380018	481.496202	-457.215141	106.998012	410.706508	-446.171235	189.292499	474.362813	-436.105900	278.220437	179.592992	-389.576246	-217.535023	957.628572	-257.797263	-17.893014	80.782323	-460.876934	-17.938316	80.885955	-62.221014	
253	1.2650	453.418586	1421.532645	-113.262859	478.274363	1445.026705	-428.306541	381.590612	1529.219441	-280.764823	429.527284	1360.647726	-279.764523	532.764157	1162.193359	-18.811801	760.668350	968.505289	-88.861784	510.399871	1164.574833	-569.775748	752.994790	951.052393	-493.200802	-138.399409	1204.374661	-269.865441	76.712802	1205.826382	-481.997949	88.549426	1247.505991	-84.125127	112.964385	1140.700206	-450.225888	112.291720	1193.440463	-132.113833	-96.434111	1286.786590	-230.766719	-99.635712	1267.165130	-324.791613	60.604432	1131.911265	-54.161714	-23.381729	1064.162432	-474.001440	194.486209	1085.373143	-59.120212	281.895178	1084.181808	-75.573480	356.286288	1039.342633	-86.336005	289.517658	1117.178308	-91.187925	457.765431	995.910484	-105.119362	455.724907	970.065016	-236.211433	399.206550	846.157316	-88.559929	378.054710	761.735682	-105.813400	320.609210	696.582205	-102.450627	400.510288	753.030310	-137.095590	243.549128	585.074446	-105.689605	173.294287	580.865433	-151.388330	443.109571	482.851607	-152.396967	370.553016	473.639624	-81.677056	66.754247	944.125041	-493.145677	129.646534	886.355162	-494.886026	161.627218	904.972014	-495.453719	156.987199	800.766168	-486.938948	224.618787	680.179004	-467.213741	254.475392	678.480951	-341.681258	45.343940	291.245637	-414.638662	-14.251652	258.185843	-375.619646	172.005566	173.474820	-452.987766	167.954762	567.799956	-478.133440	157.851462	484.138560	-458.072710	105.675131	414.036425	-446.741132	188.648339	476.733526	-436.948830	273.295328	180.736431	-389.527885	-217.555126	957.627878	-257.956289	-17.916464	80.775948	-460.880298	-17.950265	80.890951	-62.244651	
